<svg width="71" height="70" viewBox="0 0 71 70" fill="none" xmlns="http://www.w3.org/2000/svg">
<path id="sun" d="M49.4289 0.169124C50.1125 0.456234 50.6047 1.07147 50.7414 1.79608L53.4621 16.548L68.214 19.2551C68.9387 19.3918 69.5539 19.884 69.841 20.5676C70.1281 21.2512 70.0461 22.0305 69.6223 22.6457L61.1047 35.0051L69.6223 47.3508C70.0461 47.966 70.1281 48.7453 69.841 49.4289C69.5539 50.1125 68.9387 50.6047 68.214 50.7414L53.4621 53.4621L50.7414 68.214C50.6047 68.9387 50.1125 69.5539 49.4289 69.841C48.7453 70.1281 47.966 70.0461 47.3508 69.6223L35.0051 61.1047L22.6594 69.6223C22.0441 70.0461 21.2648 70.1281 20.5812 69.841C19.8976 69.5539 19.4055 68.9387 19.2687 68.214L16.548 53.4621L1.79608 50.7414C1.07147 50.6047 0.456234 50.1125 0.169124 49.4289C-0.117985 48.7453 -0.0359537 47.966 0.387874 47.3508L8.90545 35.0051L0.387874 22.6594C-0.0359537 22.0441 -0.117985 21.2648 0.169124 20.5812C0.456234 19.8976 1.07147 19.4055 1.79608 19.2687L16.548 16.548L19.2687 1.79608C19.4055 1.07147 19.8976 0.456234 20.5812 0.169124C21.2648 -0.117985 22.0441 -0.0359537 22.6594 0.387874L35.0051 8.90545L47.3508 0.387874C47.966 -0.0359537 48.7453 -0.117985 49.4289 0.169124ZM21.8801 35.0051C21.8801 31.5241 23.2629 28.1857 25.7243 25.7243C28.1857 23.2629 31.5241 21.8801 35.0051 21.8801C38.486 21.8801 41.8244 23.2629 44.2858 25.7243C46.7473 28.1857 48.1301 31.5241 48.1301 35.0051C48.1301 38.486 46.7473 41.8244 44.2858 44.2858C41.8244 46.7473 38.486 48.1301 35.0051 48.1301C31.5241 48.1301 28.1857 46.7473 25.7243 44.2858C23.2629 41.8244 21.8801 38.486 21.8801 35.0051ZM52.5051 35.0051C52.5051 30.3638 50.6613 25.9126 47.3794 22.6307C44.0975 19.3488 39.6463 17.5051 35.0051 17.5051C30.3638 17.5051 25.9126 19.3488 22.6307 22.6307C19.3488 25.9126 17.5051 30.3638 17.5051 35.0051C17.5051 39.6463 19.3488 44.0975 22.6307 47.3794C25.9126 50.6613 30.3638 52.5051 35.0051 52.5051C39.6463 52.5051 44.0975 50.6613 47.3794 47.3794C50.6613 44.0975 52.5051 39.6463 52.5051 35.0051Z" fill="#FFD43B"/>
</svg>
